<?xml version="1.0" encoding="UTF-8" standalone="no" ?>
<!DOCTYPE svg PUBLIC "-//W3C//DTD SVG 1.1//EN" "http://www.w3.org/Graphics/SVG/1.1/DTD/svg11.dtd">
<svg xmlns="http://www.w3.org/2000/svg" xmlns:xlink="http://www.w3.org/1999/xlink" version="1.1" width="523.4197337493238" height="154.6371199999999" xml:space="preserve">
<desc>Created with Fabric.js 1.6.0-rc.1</desc>
<defs></defs>
<g style="stroke: none; stroke-width: 1; stroke-dasharray: none; stroke-linecap: butt; stroke-linejoin: miter; stroke-miterlimit: 10; fill: none; fill-rule: nonzero; opacity: 1;" transform="translate(10 10) scale(0.66 0.66)" >
  <path d="M 1250 260 C 1250 116 1140 0 992 0 C 849 0 733 116 733 260 c 0 143 116 260 259 260 c 148 0 258 -117 258 -260" style="stroke: none; stroke-width: 1; stroke-dasharray: none; stroke-linecap: butt; stroke-linejoin: miter; stroke-miterlimit: 10; fill: #24265d; fill-rule: nonzero; opacity: 1;" transform=" matrix(0.125 0 0 -0.125 0 167) " stroke-linecap="round" />
  <path d="m 272 179 c 0 398 327 720 728 720 c 400 0 730 -322 730 -720 c 0 -55 -10 -108.6 -20 -160.2 c 30 75.8 40 157.2 40 241.2 c 0 418 -340 760 -758 760 C 574 1020 234 678 234 260 C 234 169 251 81.1 280 0 l 0 0 c -15 57.3 -8 117 -8 179" style="stroke: none; stroke-width: 1; stroke-dasharray: none; stroke-linecap: butt; stroke-linejoin: miter; stroke-miterlimit: 10; fill: #5e2590; fill-rule: nonzero; opacity: 1;" transform=" matrix(0.125 0 0 -0.125 0 167) " stroke-linecap="round" />
  <path d="m 49.8 235 c 0 520 427.2 945 950.2 945 c 530 0 960 -425 960 -945 c 0 -72 -10 -142.8 -30 -210.4 c 40 99.4 60 205.4 60 315.4 c 0 548 -450 990 -998 990 C 444 1330 0 888 0 340 C 0 221 21.1 106 59.8 0 l 0 0 c -19.4 75.1 -10 154 -10 235" style="stroke: none; stroke-width: 1; stroke-dasharray: none; stroke-linecap: butt; stroke-linejoin: miter; stroke-miterlimit: 10; fill: #00adef; fill-rule: nonzero; opacity: 1;" transform=" matrix(0.125 0 0 -0.125 0 167) " stroke-linecap="round" />
  <path d="m 992 698 c 268 0 488 -209 498 -472 c 0 11 0 23 0 34 c 0 277 -220 501 -498 501 c -277 0 -501 -224 -501 -501 c 0 -11 0 -23 1 -34 c 17 263 234 472 500 472" style="stroke: none; stroke-width: 1; stroke-dasharray: none; stroke-linecap: butt; stroke-linejoin: miter; stroke-miterlimit: 10; fill: #00adef; fill-rule: nonzero; opacity: 1;" transform=" matrix(0.125 0 0 -0.125 0 167) " stroke-linecap="round" />
</g>
  <g transform="translate(352.12 89.09) scale(2.16 2.16)">
   <text font-family="Bombardier" font-size="40" font-weight="normal" style="stroke: none; stroke-width: 1; stroke-dasharray: none; stroke-linecap: butt; stroke-linejoin: miter; stroke-miterlimit: 10; fill: #009966; fill-rule: nonzero; opacity: 1;" ><tspan x="-75.02" y="8.98" style="stroke: none; stroke-width: 0; stroke-dasharray: none; stroke-linecap: butt; stroke-linejoin: miter; stroke-miterlimit: 4; fill: #009966; fill-rule: ; opacity: 1;">C</tspan><tspan x="-56.58" y="8.98" style="stroke: none; stroke-width: 0; stroke-dasharray: none; stroke-linecap: butt; stroke-linejoin: miter; stroke-miterlimit: 4; fill: #009966; fill-rule: ; opacity: 1;">i</tspan><tspan x="-47.94" y="8.98" style="stroke: none; stroke-width: 0; stroke-dasharray: none; stroke-linecap: butt; stroke-linejoin: miter; stroke-miterlimit: 4; fill: #009966; fill-rule: ; opacity: 1;">t</tspan><tspan x="-35.58" y="8.98" style="stroke: none; stroke-width: 0; stroke-dasharray: none; stroke-linecap: butt; stroke-linejoin: miter; stroke-miterlimit: 4; fill: #009966; fill-rule: ; opacity: 1;">y</tspan><tspan x="-16.9" y="8.98" style="stroke: none; stroke-width: 0; stroke-dasharray: none; stroke-linecap: butt; stroke-linejoin: miter; stroke-miterlimit: 4; fill: #009966; fill-rule: ; opacity: 1;">W</tspan><tspan x="5.3" y="8.98" style="stroke: none; stroke-width: 0; stroke-dasharray: none; stroke-linecap: butt; stroke-linejoin: miter; stroke-miterlimit: 4; fill: #009966; fill-rule: ; opacity: 1;">a</tspan><tspan x="24.82" y="8.98" style="stroke: none; stroke-width: 0; stroke-dasharray: none; stroke-linecap: butt; stroke-linejoin: miter; stroke-miterlimit: 4; fill: #009966; fill-rule: ; opacity: 1;">t</tspan><tspan x="37.18" y="8.98" style="stroke: none; stroke-width: 0; stroke-dasharray: none; stroke-linecap: butt; stroke-linejoin: miter; stroke-miterlimit: 4; fill: #009966; fill-rule: ; opacity: 1;">c</tspan><tspan x="55.5" y="8.98" style="stroke: none; stroke-width: 0; stroke-dasharray: none; stroke-linecap: butt; stroke-linejoin: miter; stroke-miterlimit: 4; fill: #009966; fill-rule: ; opacity: 1;">h</tspan></text>
 </g>
</svg>